<svg id="svg-content" xmlns="http://www.w3.org/2000/svg" style="display:none;">
  <symbol id="svg-social-email"       viewBox="0 0 2048 2048"><path d="M1920 838v794q0 66-47 113t-113 47h-1472q-66 0-113-47t-47-113v-794q44 49 101 87 362 246 497 345 57 42 92.5 65.5t94.5 48 110 24.5h2q51 0 110-24.5t94.5-48 92.5-65.5q170-123 498-345 57-39 100-87zm0-294q0 79-49 151t-122 123q-376 261-468 325-10 7-42.5 30.5t-54 38-52 32.5-57.5 27-50 9h-2q-23 0-50-9t-57.5-27-52-32.5-54-38-42.5-30.5q-91-64-262-182.5t-205-142.5q-62-42-117-115.5t-55-136.5q0-78 41.5-130t118.5-52h1472q65 0 112.5 47t47.5 113z"/></symbol>
  <symbol id="svg-social-rss"         viewBox="0 0 2048 2048"><path d="M704 1472q0 80-56 136t-136 56-136-56-56-136 56-136 136-56 136 56 56 136zm512 123q2 28-17 48-18 21-47 21h-135q-25 0-43-16.5t-20-41.5q-22-229-184.5-391.5t-391.5-184.5q-25-2-41.5-20t-16.5-43v-135q0-29 21-47 17-17 43-17h5q160 13 306 80.5t259 181.5q114 113 181.5 259t80.5 306zm512 2q2 27-18 47-18 20-46 20h-143q-26 0-44.5-17.5t-19.5-42.5q-12-215-101-408.5t-231.5-336-336-231.5-408.5-102q-25-1-42.5-19.5t-17.5-43.5v-143q0-28 20-46 18-18 44-18h3q262 13 501.5 120t425.5 294q187 186 294 425.5t120 501.5z"/></symbol>
  <symbol id="svg-social-facebook"    viewBox="0 0 2048 2048"><path d="M1471 140v264h-157q-86 0-116 36t-30 108v189h293l-39 296h-254v759h-306v-759h-255v-296h255v-218q0-186 104-288.5t277-102.5q147 0 228 12z"/></symbol>
  <symbol id="svg-social-twitter"     viewBox="0 0 2048 2048"><path d="M1812 536q-67 98-162 167 1 14 1 42 0 130-38 259.5t-115.5 248.5-184.5 210.5-258 146-323 54.5q-271 0-496-145 35 4 78 4 225 0 401-138-105-2-188-64.5t-114-159.5q33 5 61 5 43 0 85-11-112-23-185.5-111.5t-73.5-205.5v-4q68 38 146 41-66-44-105-115t-39-154q0-88 44-163 121 149 294.5 238.5t371.5 99.5q-8-38-8-74 0-134 94.5-228.5t228.5-94.5q140 0 236 102 109-21 205-78-37 115-142 178 93-10 186-50z"/></symbol>
  <symbol id="svg-social-instragram"  viewBox="0 0 2048 2048"><path d="M1618 1554v-648h-135q20 63 20 131 0 126-64 232.5t-174 168.5-240 62q-197 0-337-135.5t-140-327.5q0-68 20-131h-141v648q0 26 17.5 43.5t43.5 17.5h1069q25 0 43-17.5t18-43.5zm-284-533q0-124-90.5-211.5t-218.5-87.5q-127 0-217.5 87.5t-90.5 211.5 90.5 211.5 217.5 87.5q128 0 218.5-87.5t90.5-211.5zm284-360v-165q0-28-20-48.5t-49-20.5h-174q-29 0-49 20.5t-20 48.5v165q0 29 20 49t49 20h174q29 0 49-20t20-49zm174-208v1142q0 81-58 139t-139 58h-1142q-81 0-139-58t-58-139v-1142q0-81 58-139t139-58h1142q81 0 139 58t58 139z"/></symbol>
  <symbol id="svg-social-linkedin"    viewBox="0 0 2048 2048"><path d="M605 753v991h-330v-991h330zm21-306q1 73-50.5 122t-135.5 49h-2q-82 0-132-49t-50-122q0-74 51.5-122.5t134.5-48.5 133 48.5 51 122.5zm1166 729v568h-329v-530q0-105-40.5-164.5t-126.5-59.5q-63 0-105.5 34.5t-63.5 85.5q-11 30-11 81v553h-329q2-399 2-647t-1-296l-1-48h329v144h-2q20-32 41-56t56.5-52 87-43.5 114.5-15.5q171 0 275 113.5t104 332.5z"/></symbol>
  <symbol id="svg-social-youtube"     viewBox="0 0 2048 2048"><path d="M1408 1024q0-37-30-54l-512-320q-31-20-65-2-33 18-33 56v640q0 38 33 56 16 8 31 8 20 0 34-10l512-320q30-17 30-54zm512 0q0 96-1 150t-8.5 136.5-22.5 147.5q-16 73-69 123t-124 58q-222 25-671 25t-671-25q-71-8-124.5-58t-69.5-123q-14-65-21.5-147.5t-8.5-136.5-1-150 1-150 8.5-136.5 22.5-147.5q16-73 69-123t124-58q222-25 671-25t671 25q71 8 124.5 58t69.5 123q14 65 21.5 147.5t8.5 136.5 1 150z"/></symbol>
  <symbol id="svg-content-book"       viewBox="0 0 2048 2048"><path d="M1831 606q40 57 18 129l-275 906q-19 64-76.5 107.5t-122.5 43.5h-923q-77 0-148.5-53.5t-99.5-131.5q-24-67-2-127 0-4 3-27t4-37q1-8-3-21.5t-3-19.5q2-11 8-21t16.5-23.5 16.5-23.5q23-38 45-91.5t30-91.5q3-10 .5-30t-.5-28q3-11 17-28t17-23q21-36 42-92t25-90q1-9-2.5-32t.5-28q4-13 22-30.5t22-22.5q19-26 42.5-84.5t27.5-96.5q1-8-3-25.5t-2-26.5q2-8 9-18t18-23 17-21q8-12 16.5-30.5t15-35 16-36 19.5-32 26.5-23.5 36-11.5 47.5 5.5l-1 3q38-9 51-9h761q74 0 114 56t18 130l-274 906q-36 119-71.5 153.5t-128.5 34.5h-869q-27 0-38 15-11 16-1 43 24 70 144 70h923q29 0 56-15.5t35-41.5l300-987q7-22 5-57 38 15 59 43zm-1064 2q-4 13 2 22.5t20 9.5h608q13 0 25.5-9.5t16.5-22.5l21-64q4-13-2-22.5t-20-9.5h-608q-13 0-25.5 9.5t-16.5 22.5zm-83 256q-4 13 2 22.5t20 9.5h608q13 0 25.5-9.5t16.5-22.5l21-64q4-13-2-22.5t-20-9.5h-608q-13 0-25.5 9.5t-16.5 22.5z"/></symbol>
  <symbol id="svg-content-bus"        viewBox="0 0 2048 2048"><path d="M640 1344q0-53-37.5-90.5t-90.5-37.5-90.5 37.5-37.5 90.5 37.5 90.5 90.5 37.5 90.5-37.5 37.5-90.5zm1024 0q0-53-37.5-90.5t-90.5-37.5-90.5 37.5-37.5 90.5 37.5 90.5 90.5 37.5 90.5-37.5 37.5-90.5zm-46-396l-72-384q-5-23-22.5-37.5t-40.5-14.5h-918q-23 0-40.5 14.5t-22.5 37.5l-72 384q-5 30 14 53t49 23h1062q30 0 49-23t14-53zm-226-612q0-20-14-34t-34-14h-640q-20 0-34 14t-14 34 14 34 34 14h640q20 0 34-14t14-34zm400 725v603h-128v128q0 53-37.5 90.5t-90.5 37.5-90.5-37.5-37.5-90.5v-128h-768v128q0 53-37.5 90.5t-90.5 37.5-90.5-37.5-37.5-90.5v-128h-128v-603q0-112 25-223l103-454q9-78 97.5-137t230-89 312.5-30 312.5 30 230 89 97.5 137l105 454q23 102 23 223z"/></symbol>
  <symbol id="svg-content-calendar"   viewBox="0 0 2048 2048"><path d="M320 1792h1408v-1024h-1408v1024zm384-1216v-288q0-14-9-23t-23-9h-64q-14 0-23 9t-9 23v288q0 14 9 23t23 9h64q14 0 23-9t9-23zm768 0v-288q0-14-9-23t-23-9h-64q-14 0-23 9t-9 23v288q0 14 9 23t23 9h64q14 0 23-9t9-23zm384-64v1280q0 52-38 90t-90 38h-1408q-52 0-90-38t-38-90v-1280q0-52 38-90t90-38h128v-96q0-66 47-113t113-47h64q66 0 113 47t47 113v96h384v-96q0-66 47-113t113-47h64q66 0 113 47t47 113v96h128q52 0 90 38t38 90z"/></symbol>
</svg>
