<svg id="svg-theme" xmlns="http://www.w3.org/2000/svg" style="display:none;">
  <symbol id="svg-theme-cross"        viewBox="0 0 2048 2048"><path d="M1618 1450q0 40-28 68l-136 136q-28 28-68 28t-68-28l-294-294-294 294q-28 28-68 28t-68-28l-136-136q-28-28-28-68t28-68l294-294-294-294q-28-28-28-68t28-68l136-136q28-28 68-28t68 28l294 294 294-294q28-28 68-28t68 28l136 136q28 28 28 68t-28 68l-294 294 294 294q28 28 28 68z"/></symbol>
  <symbol id="svg-theme-search"       viewBox="0 0 2048 2048"><path d="M1344 960q0-185-131.5-316.5t-316.5-131.5-316.5 131.5-131.5 316.5 131.5 316.5 316.5 131.5 316.5-131.5 131.5-316.5zm512 832q0 52-38 90t-90 38q-54 0-90-38l-343-342q-179 124-399 124-143 0-273.5-55.5t-225-150-150-225-55.5-273.5 55.5-273.5 150-225 225-150 273.5-55.5 273.5 55.5 225 150 150 225 55.5 273.5q0 220-124 399l343 343q37 37 37 90z"/></symbol>
  <symbol id="svg-theme-comment"      viewBox="0 0 2048 2048"><path d="M1920 1024q0 174-120 321.5t-326 233-450 85.5q-70 0-145-8-198 175-460 242-49 14-114 22-17 2-30.5-9t-17.5-29v-1q-3-4-.5-12t2-10 4.5-9.5l6-9 7-8.5 8-9q7-8 31-34.5t34.5-38 31-39.5 32.5-51 27-59 26-76q-157-89-247.5-220t-90.5-281q0-130 71-248.5t191-204.5 286-136.5 348-50.5q244 0 450 85.5t326 233 120 321.5z"/></symbol>
  <symbol id="svg-theme-top"          viewBox="0 0 2048 2048"><path d="M1421 1267l102-102q19-19 19-45t-19-45l-454-454q-19-19-45-19t-45 19l-454 454q-19 19-19 45t19 45l102 102q19 19 45 19t45-19l307-307 307 307q19 19 45 19t45-19zm371-243q0 209-103 385.5t-279.5 279.5-385.5 103-385.5-103-279.5-279.5-103-385.5 103-385.5 279.5-279.5 385.5-103 385.5 103 279.5 279.5 103 385.5z"/></symbol>
  <symbol id="svg-theme-burger"       viewBox="0 0 2048 2048"><path d="M1792 1472v128q0 26-19 45t-45 19h-1408q-26 0-45-19t-19-45v-128q0-26 19-45t45-19h1408q26 0 45 19t19 45zm0-512v128q0 26-19 45t-45 19h-1408q-26 0-45-19t-19-45v-128q0-26 19-45t45-19h1408q26 0 45 19t19 45zm0-512v128q0 26-19 45t-45 19h-1408q-26 0-45-19t-19-45v-128q0-26 19-45t45-19h1408q26 0 45 19t19 45z"/></symbol>
  <symbol id="svg-theme-right"        viewBox="0 0 2048 2048"><path d="M1299 1088q0 13-10 23l-466 466q-10 10-23 10t-23-10l-50-50q-10-10-10-23t10-23l393-393-393-393q-10-10-10-23t10-23l50-50q10-10 23-10t23 10l466 466q10 10 10 23z"/></symbol>
  <symbol id="svg-theme-doubleright"  viewBox="0 0 2048 2048"><path d="M1107 1088q0 13-10 23l-466 466q-10 10-23 10t-23-10l-50-50q-10-10-10-23t10-23l393-393-393-393q-10-10-10-23t10-23l50-50q10-10 23-10t23 10l466 466q10 10 10 23zm384 0q0 13-10 23l-466 466q-10 10-23 10t-23-10l-50-50q-10-10-10-23t10-23l393-393-393-393q-10-10-10-23t10-23l50-50q10-10 23-10t23 10l466 466q10 10 10 23z"/></symbol>
  <symbol id="svg-theme-left"         viewBox="0 0 2048 2048"><path d="M1331 672q0 13-10 23l-393 393 393 393q10 10 10 23t-10 23l-50 50q-10 10-23 10t-23-10l-466-466q-10-10-10-23t10-23l466-466q10-10 23-10t23 10l50 50q10 10 10 23z"/></symbol>
  <symbol id="svg-theme-doubleleft"   viewBox="0 0 2048 2048"><path d="M1139 1504q0 13-10 23l-50 50q-10 10-23 10t-23-10l-466-466q-10-10-10-23t10-23l466-466q10-10 23-10t23 10l50 50q10 10 10 23t-10 23l-393 393 393 393q10 10 10 23zm384 0q0 13-10 23l-50 50q-10 10-23 10t-23-10l-466-466q-10-10-10-23t10-23l466-466q10-10 23-10t23 10l50 50q10 10 10 23t-10 23l-393 393 393 393q10 10 10 23z"/></symbol>
</svg>
